<svg viewBox="0 0 17 17" fill="none" xmlns="http://www.w3.org/2000/svg">
<path d="M14.1667 7.79098H15.5834C15.5834 4.15723 12.84 1.41669 9.20129 1.41669V2.83335C12.0785 2.83335 14.1667 4.91798 14.1667 7.79098Z" fill="white"/>
<path d="M9.20841 5.66663C10.698 5.66663 11.3334 6.30201 11.3334 7.79163H12.7501C12.7501 5.50726 11.4928 4.24997 9.20841 4.24997V5.66663ZM11.6323 9.52209C11.4962 9.39838 11.3174 9.3324 11.1335 9.33809C10.9497 9.34377 10.7752 9.42067 10.647 9.55255L8.95199 11.2958C8.54399 11.2178 7.72374 10.9621 6.87941 10.1199C6.03508 9.27488 5.77937 8.45251 5.70358 8.04734L7.44537 6.35159C7.57741 6.22347 7.65442 6.04901 7.66011 5.86511C7.66579 5.68122 7.5997 5.50233 7.47583 5.3663L4.85854 2.48834C4.73461 2.35189 4.56237 2.26911 4.37839 2.25761C4.19442 2.2461 4.01321 2.30677 3.87324 2.42672L2.33616 3.74492C2.2137 3.86783 2.1406 4.03141 2.13074 4.20463C2.12012 4.38172 1.91754 8.57647 5.1702 11.8305C8.00779 14.6674 11.5622 14.875 12.5411 14.875C12.6842 14.875 12.772 14.8707 12.7954 14.8693C12.9686 14.8596 13.1321 14.7862 13.2544 14.6632L14.5719 13.1254C14.6919 12.9855 14.7527 12.8043 14.7414 12.6204C14.73 12.4364 14.6473 12.2641 14.511 12.1401L11.6323 9.52209V9.52209Z" fill="white"/>
</svg>
