<svg viewBox="0 0 22 22" fill="none" xmlns="http://www.w3.org/2000/svg">
<path d="M19.25 5.5H15.5833V2.75C15.5833 2.50689 15.4867 2.27373 15.3148 2.10182C15.1429 1.92991 14.9098 1.83334 14.6666 1.83334H7.33331C7.0902 1.83334 6.85704 1.92991 6.68513 2.10182C6.51322 2.27373 6.41665 2.50689 6.41665 2.75V9.16667H2.74998C2.50686 9.16667 2.27371 9.26325 2.1018 9.43516C1.92989 9.60706 1.83331 9.84022 1.83331 10.0833V17.4167C1.83331 17.6598 1.92989 17.8929 2.1018 18.0649C2.27371 18.2368 2.50686 18.3333 2.74998 18.3333H19.25C19.4931 18.3333 19.7263 18.2368 19.8982 18.0649C20.0701 17.8929 20.1666 17.6598 20.1666 17.4167V6.41667C20.1666 6.17355 20.0701 5.9404 19.8982 5.76849C19.7263 5.59658 19.4931 5.5 19.25 5.5ZM5.49998 16.5H3.66665V14.6667H5.49998V16.5ZM5.49998 12.8333H3.66665V11H5.49998V12.8333ZM10.0833 16.5H8.24998V14.6667H10.0833V16.5ZM10.0833 12.8333H8.24998V11H10.0833V12.8333ZM10.0833 9.16667H8.24998V7.33334H10.0833V9.16667ZM10.0833 5.5H8.24998V3.66667H10.0833V5.5ZM13.75 16.5H11.9166V14.6667H13.75V16.5ZM13.75 12.8333H11.9166V11H13.75V12.8333ZM13.75 9.16667H11.9166V7.33334H13.75V9.16667ZM13.75 5.5H11.9166V3.66667H13.75V5.5ZM18.3333 16.5H16.5V14.6667H18.3333V16.5ZM18.3333 12.8333H16.5V11H18.3333V12.8333ZM18.3333 9.16667H16.5V7.33334H18.3333V9.16667Z" fill="white"/>
</svg>
