<svg viewBox="0 0 41 47" fill="none" xmlns="http://www.w3.org/2000/svg">
<g clip-path="url(#clip0_3_59)">
<path d="M36.6071 41H4.39284C4.00449 41 3.63204 41.1542 3.35743 41.4288C3.08283 41.7035 2.92856 42.0759 2.92856 42.4643V45.3928C2.92856 45.7812 3.08283 46.1536 3.35743 46.4282C3.63204 46.7028 4.00449 46.8571 4.39284 46.8571H36.6071C36.9955 46.8571 37.3679 46.7028 37.6425 46.4282C37.9171 46.1536 38.0714 45.7812 38.0714 45.3928V42.4643C38.0714 42.0759 37.9171 41.7035 37.6425 41.4288C37.3679 41.1542 36.9955 41 36.6071 41ZM38.0714 14.6428H23.4286V10.25H27.0893C27.2834 10.25 27.4697 10.1728 27.607 10.0355C27.7443 9.89823 27.8214 9.712 27.8214 9.51783V5.12497C27.8214 4.93079 27.7443 4.74457 27.607 4.60727C27.4697 4.46996 27.2834 4.39283 27.0893 4.39283H23.4286V0.732112C23.4286 0.537936 23.3514 0.351713 23.2141 0.214409C23.0768 0.0771057 22.8906 -3.05176e-05 22.6964 -3.05176e-05L18.3036 -3.05176e-05C18.1094 -3.05176e-05 17.9232 0.0771057 17.7859 0.214409C17.6485 0.351713 17.5714 0.537936 17.5714 0.732112V4.39283H13.9107C13.7165 4.39283 13.5303 4.46996 13.393 4.60727C13.2557 4.74457 13.1786 4.93079 13.1786 5.12497V9.51783C13.1786 9.712 13.2557 9.89823 13.393 10.0355C13.5303 10.1728 13.7165 10.25 13.9107 10.25H17.5714V14.6428H2.92856C2.46942 14.6432 2.0168 14.7515 1.60723 14.959C1.19766 15.1665 0.842619 15.4674 0.57077 15.8374C0.29892 16.2074 0.117877 16.6362 0.0422544 17.089C-0.0333679 17.5419 -0.00145048 18.0062 0.13543 18.4445L6.82356 38.0714H34.1764L40.8645 18.4445C41.0014 18.0062 41.0333 17.5419 40.9577 17.089C40.8821 16.6362 40.7011 16.2074 40.4292 15.8374C40.1574 15.4674 39.8023 15.1665 39.3927 14.959C38.9832 14.7515 38.5306 14.6432 38.0714 14.6428V14.6428Z" fill="white"/>
</g>
<defs>
<clipPath id="clip0_3_59">
<rect width="41" height="46.8571" fill="white"/>
</clipPath>
</defs>
</svg>
