<svg viewBox="0 0 93 74" fill="none" xmlns="http://www.w3.org/2000/svg">
<g clip-path="url(#clip0_3_70)">
<path d="M18.5 13.875H74V50.875H83.25V11.5625C83.25 7.75121 80.1281 4.625 76.3125 4.625H16.1875C12.3762 4.625 9.25 7.75121 9.25 11.5625V50.875H18.5V13.875ZM90.1875 55.5H2.3125C1.04785 55.5 0 56.5551 0 57.8125V60.125C0 65.2197 4.15527 69.375 9.25 69.375H83.25C88.3447 69.375 92.5 65.2197 92.5 60.125V57.8125C92.5 56.5551 91.4594 55.5 90.1875 55.5ZM52.884 41.3648C53.4477 41.9285 54.1848 42.2031 54.9219 42.2031C55.659 42.2031 56.4004 41.923 56.9655 41.3585L63.903 34.421C65.0321 33.2918 65.0321 31.4581 63.903 30.3293L56.9655 23.3918C55.8365 22.2626 54.007 22.2626 52.8782 23.3918C51.7491 24.521 51.7491 26.3547 52.8782 27.4835L57.772 32.3744L52.8782 37.2654C51.7422 38.402 51.7422 40.2375 52.884 41.3648ZM39.616 23.3996C38.4869 22.2704 36.6575 22.2704 35.5287 23.3996L28.5912 30.3371C27.4621 31.4663 27.4621 33.3 28.5912 34.4288L35.5287 41.3663C36.1039 41.9285 36.841 42.2031 37.5781 42.2031C38.3152 42.2031 39.0567 41.923 39.6218 41.3585C40.7509 40.2293 40.7509 38.3956 39.6218 37.2668L34.7309 32.375L39.6247 27.4841C40.6277 26.3625 40.6277 24.527 39.616 23.3996V23.3996Z" fill="white"/>
</g>
<defs>
<clipPath id="clip0_3_70">
<rect width="92.5" height="74" fill="white"/>
</clipPath>
</defs>
</svg>
