<svg width="14" height="14" viewBox="0 0 14 14" fill="none" xmlns="http://www.w3.org/2000/svg">
<path d="M6.99996 1.16669C3.77996 1.16669 1.16663 3.78002 1.16663 7.00002C1.16663 10.22 3.77996 12.8334 6.99996 12.8334H9.91663V11.6667H6.99996C4.46829 11.6667 2.33329 9.53169 2.33329 7.00002C2.33329 4.46835 4.46829 2.33335 6.99996 2.33335C9.53163 2.33335 11.6666 4.46835 11.6666 7.00002V7.83419C11.6666 8.29502 11.2525 8.75002 10.7916 8.75002C10.3308 8.75002 9.91663 8.29502 9.91663 7.83419V7.00002C9.91663 5.39002 8.60996 4.08335 6.99996 4.08335C5.38996 4.08335 4.08329 5.39002 4.08329 7.00002C4.08329 8.61002 5.38996 9.91669 6.99996 9.91669C7.80496 9.91669 8.53996 9.59002 9.06496 9.05919C9.44413 9.57835 10.0975 9.91669 10.7916 9.91669C11.9408 9.91669 12.8333 8.98335 12.8333 7.83419V7.00002C12.8333 3.78002 10.22 1.16669 6.99996 1.16669ZM6.99996 8.75002C6.03163 8.75002 5.24996 7.96835 5.24996 7.00002C5.24996 6.03169 6.03163 5.25002 6.99996 5.25002C7.96829 5.25002 8.74996 6.03169 8.74996 7.00002C8.74996 7.96835 7.96829 8.75002 6.99996 8.75002Z" fill="white"/>
</svg>
