<svg viewBox="0 0 41 41" fill="none" xmlns="http://www.w3.org/2000/svg">
<path d="M5.12499 18.7917C3.24583 18.7917 1.70833 20.3292 1.70833 22.2083V34.1667C1.70833 36.0458 3.24583 37.5833 5.12499 37.5833C7.00416 37.5833 8.54166 36.0458 8.54166 34.1667V22.2083C8.54166 20.3292 7.00416 18.7917 5.12499 18.7917ZM17.0833 9.05416C17.0833 5.89374 19.5604 3.41666 22.7208 3.41666C24.4975 3.41666 26.2229 4.25374 27.3333 5.55207C28.4437 4.25374 30.1692 3.41666 31.9458 3.41666C35.1062 3.41666 37.5833 5.89374 37.5833 9.05416C37.5833 12.6417 33.3125 16.7587 28.4779 21.1662C28.163 21.4544 27.7516 21.6141 27.3248 21.6141C26.898 21.6141 26.4866 21.4544 26.1717 21.1662C21.3542 16.7587 17.0833 12.6417 17.0833 9.05416ZM34.1496 29.0417H22.4817C22.2892 29.0408 22.0984 29.0061 21.9179 28.9392L19.4067 28.0679C19.3019 28.0315 19.2054 27.9747 19.1227 27.9007C19.0401 27.8268 18.973 27.7371 18.9253 27.637C18.8776 27.5368 18.8503 27.4282 18.845 27.3174C18.8396 27.2067 18.8563 27.0959 18.8942 26.9917C19.0479 26.5475 19.5433 26.3083 19.9875 26.4792L21.9008 27.2137C22.0887 27.2821 22.3108 27.3333 22.5158 27.3333H27.0087C28.1192 27.3333 29.0246 26.4279 29.0246 25.3175C29.0246 24.4804 28.495 23.7287 27.7092 23.4212L15.8875 19.0137C15.5117 18.86 15.1017 18.7917 14.6917 18.7917H11.9583V34.2008L22.8404 37.2929C23.5408 37.4979 24.2925 37.4637 24.9758 37.2075L37.5833 32.4583C37.5833 30.5621 36.0458 29.0417 34.1496 29.0417V29.0417Z" fill="white"/>
</svg>
