<svg viewBox="0 0 45 45" fill="none" xmlns="http://www.w3.org/2000/svg">
<path d="M42.4626 21.5666C40.5984 13.1388 37.7929 8.64054 33.6313 7.41183C32.7565 7.15523 31.8491 7.02703 30.9375 7.03126C29.7325 7.03126 28.6831 7.32481 27.573 7.63595C26.2353 8.01124 24.7157 8.43751 22.5 8.43751C20.2842 8.43751 18.7637 8.01212 17.4234 7.63683C16.3125 7.32481 15.2639 7.03126 14.0625 7.03126C13.1198 7.02799 12.1812 7.15578 11.2737 7.41095C7.13405 8.63438 4.33034 13.1309 2.43893 21.5613C0.405143 30.6334 1.40622 36.3612 5.24616 37.6901C5.77252 37.8757 6.32634 37.9713 6.88444 37.9732C9.51501 37.9732 11.6244 35.782 13.0658 33.9882C14.6944 31.9579 16.6007 30.9278 22.5 30.9278C27.769 30.9278 29.9496 31.6424 31.8331 33.9882C33.017 35.463 34.1358 36.4948 35.252 37.1443C36.7365 38.0074 38.2201 38.199 39.6606 37.7042C41.9299 36.9299 43.2307 34.8829 43.5278 31.6187C43.7537 29.1155 43.4056 25.8275 42.4626 21.5666ZM18.2812 21.0938H15.4687V23.9063C15.4687 24.2792 15.3206 24.6369 15.0568 24.9006C14.7931 25.1644 14.4354 25.3125 14.0625 25.3125C13.6895 25.3125 13.3318 25.1644 13.0681 24.9006C12.8044 24.6369 12.6562 24.2792 12.6562 23.9063V21.0938H9.84372C9.47076 21.0938 9.11307 20.9456 8.84935 20.6819C8.58562 20.4182 8.43747 20.0605 8.43747 19.6875C8.43747 19.3145 8.58562 18.9569 8.84935 18.6931C9.11307 18.4294 9.47076 18.2813 9.84372 18.2813H12.6562V15.4688C12.6562 15.0958 12.8044 14.7381 13.0681 14.4744C13.3318 14.2107 13.6895 14.0625 14.0625 14.0625C14.4354 14.0625 14.7931 14.2107 15.0568 14.4744C15.3206 14.7381 15.4687 15.0958 15.4687 15.4688V18.2813H18.2812C18.6542 18.2813 19.0119 18.4294 19.2756 18.6931C19.5393 18.9569 19.6875 19.3145 19.6875 19.6875C19.6875 20.0605 19.5393 20.4182 19.2756 20.6819C19.0119 20.9456 18.6542 21.0938 18.2812 21.0938ZM25.664 21.4453C25.3164 21.4453 24.9765 21.3422 24.6874 21.1491C24.3984 20.9559 24.1731 20.6814 24.04 20.3602C23.907 20.039 23.8722 19.6856 23.94 19.3446C24.0078 19.0036 24.1752 18.6904 24.4211 18.4445C24.6669 18.1987 24.9801 18.0313 25.3211 17.9635C25.6621 17.8956 26.0155 17.9305 26.3367 18.0635C26.6579 18.1965 26.9324 18.4218 27.1256 18.7109C27.3187 19 27.4218 19.3398 27.4218 19.6875C27.4218 20.1537 27.2366 20.6008 26.907 20.9305C26.5773 21.2601 26.1302 21.4453 25.664 21.4453V21.4453ZM29.5312 25.3125C29.1834 25.3125 28.8433 25.2093 28.5542 25.016C28.265 24.8226 28.0397 24.5478 27.9068 24.2264C27.7739 23.9049 27.7393 23.5512 27.8075 23.2101C27.8757 22.869 28.0435 22.5558 28.2898 22.3102C28.5361 22.0645 28.8497 21.8975 29.191 21.8301C29.5323 21.7628 29.8858 21.7982 30.207 21.932C30.5281 22.0657 30.8023 22.2917 30.9949 22.5813C31.1875 22.871 31.2899 23.2112 31.289 23.5591C31.2879 24.0245 31.1022 24.4705 30.7726 24.7992C30.4431 25.1279 29.9967 25.3125 29.5312 25.3125V25.3125ZM29.5312 17.5781C29.1836 17.5781 28.8437 17.475 28.5546 17.2819C28.2656 17.0887 28.0403 16.8142 27.9072 16.493C27.7742 16.1718 27.7394 15.8184 27.8072 15.4774C27.875 15.1364 28.0424 14.8232 28.2883 14.5774C28.5341 14.3315 28.8473 14.1641 29.1883 14.0963C29.5293 14.0285 29.8827 14.0633 30.2039 14.1963C30.5251 14.3294 30.7996 14.5547 30.9928 14.8437C31.1859 15.1328 31.289 15.4727 31.289 15.8203C31.289 16.2865 31.1038 16.7336 30.7742 17.0633C30.4445 17.3929 29.9974 17.5781 29.5312 17.5781ZM33.3984 21.4453C33.0507 21.4453 32.7109 21.3422 32.4218 21.1491C32.1327 20.9559 31.9074 20.6814 31.7744 20.3602C31.6414 20.039 31.6065 19.6856 31.6744 19.3446C31.7422 19.0036 31.9096 18.6904 32.1554 18.4445C32.4013 18.1987 32.7145 18.0313 33.0555 17.9635C33.3965 17.8956 33.7499 17.9305 34.0711 18.0635C34.3923 18.1965 34.6668 18.4218 34.86 18.7109C35.0531 19 35.1562 19.3398 35.1562 19.6875C35.1562 20.1537 34.971 20.6008 34.6414 20.9305C34.3117 21.2601 33.8646 21.4453 33.3984 21.4453V21.4453Z" fill="white"/>
</svg>
