<svg  viewBox="0 0 19 19" fill="none" xmlns="http://www.w3.org/2000/svg">
<g clip-path="url(#clip0_2_55)">
<path d="M19 7.4575C19.0004 7.19956 18.9325 6.94611 18.8032 6.72293C18.6739 6.49975 18.4878 6.31479 18.2638 6.18687L10.26 1.43687C10.0294 1.30229 9.76709 1.23138 9.50003 1.23138C9.23297 1.23138 8.9707 1.30229 8.74003 1.43687L0.724405 6.18687C0.502903 6.31831 0.31941 6.50511 0.191963 6.72893C0.0645148 6.95275 -0.00250244 7.20587 -0.00250244 7.46344C-0.00250244 7.721 0.0645148 7.97413 0.191963 8.19794C0.31941 8.42176 0.502903 8.60857 0.724405 8.74L3.0044 10.07V13.4069C3.00578 13.6677 3.07422 13.9237 3.20316 14.1504C3.33211 14.3771 3.5172 14.5668 3.74065 14.7012L8.78753 17.6106C9.01287 17.7354 9.26621 17.8008 9.52378 17.8008C9.78135 17.8008 10.0347 17.7354 10.26 17.6106L15.3069 14.7012C15.5304 14.5668 15.7155 14.3771 15.8444 14.1504C15.9733 13.9237 16.0418 13.6677 16.0432 13.4069V10.0344L17.5157 9.1675V12.3975H19V7.4575ZM14.5707 13.395L9.50003 16.3162L4.48878 13.4069V10.9487L8.74003 13.4781C8.97149 13.6104 9.23345 13.6799 9.50003 13.6799C9.76661 13.6799 10.0286 13.6104 10.26 13.4781L14.5588 10.9131L14.5707 13.395ZM9.50003 12.1956L1.4844 7.44562L9.50003 2.68375L17.5157 7.43375L9.50003 12.1956Z" fill="white"/>
</g>
<defs>
<clipPath id="clip0_2_55">
<rect width="19" height="19" fill="white"/>
</clipPath>
</defs>
</svg>
